<svg version="1.1" id="Layer_1" xmlns="http://www.w3.org/2000/svg" xmlns:xlink="http://www.w3.org/1999/xlink" x="0px" y="0px"
	 width="100%" viewBox="0 0 1563 1563" enable-background="new 0 0 1563 1563" xml:space="preserve">
<path fill="#FFFFFF" opacity="1.000000" stroke="none" 
	d="
M1564.000000,536.000000 
	C1564.000000,878.999878 1564.000000,1221.499756 1564.000000,1563.999756 
	C1043.000244,1563.999756 522.000488,1563.999756 1.000579,1563.999878 
	C1.000386,1043.000366 1.000386,522.000854 1.000193,1.000929 
	C521.999451,1.000619 1042.998901,1.000619 1563.999146,1.000310 
	C1564.000000,179.166672 1564.000000,357.333344 1564.000000,536.000000 
M747.500061,92.857613 
	C672.671692,92.857613 597.843384,92.843376 523.015015,92.860596 
	C372.023346,92.895325 221.031677,92.947159 70.040009,92.991928 
	C69.873344,92.991974 69.706688,92.991722 69.540024,92.991966 
	C44.765430,93.028221 23.992781,113.745682 23.992720,138.430649 
	C23.991625,584.251831 23.991606,1030.072998 23.992861,1475.894165 
	C23.992929,1500.496216 44.515770,1521.007812 69.118820,1521.007812 
	C544.439209,1521.008057 1019.759583,1521.007935 1495.079956,1521.008423 
	C1514.384644,1521.008423 1527.899414,1511.560425 1536.568970,1494.902588 
	C1538.560547,1491.076416 1539.763428,1486.355835 1539.764893,1482.046387 
	C1539.905884,1032.058594 1539.898804,582.070923 1539.850342,132.083160 
	C1539.850098,129.463623 1539.519165,126.721146 1538.707275,124.244286 
	C1532.732178,106.014702 1514.642456,93.008560 1495.463379,92.994186 
	C1427.967163,92.943611 1360.470825,92.863411 1292.974609,92.867317 
	C1205.311646,92.872391 1117.648804,92.983261 1029.985840,92.982117 
	C936.157288,92.980888 842.328674,92.902390 747.500061,92.857613 
z"/>
<path fill="#040405" opacity="1.000000" stroke="none" 
	d="
M748.000122,92.857620 
	C842.328674,92.902390 936.157288,92.980888 1029.985840,92.982117 
	C1117.648804,92.983261 1205.311646,92.872391 1292.974609,92.867317 
	C1360.470825,92.863411 1427.967163,92.943611 1495.463379,92.994186 
	C1514.642456,93.008560 1532.732178,106.014702 1538.707275,124.244286 
	C1539.519165,126.721146 1539.850098,129.463623 1539.850342,132.083160 
	C1539.898804,582.070923 1539.905884,1032.058594 1539.764893,1482.046387 
	C1539.763428,1486.355835 1538.560547,1491.076416 1536.568970,1494.902588 
	C1527.899414,1511.560425 1514.384644,1521.008423 1495.079956,1521.008423 
	C1019.759583,1521.007935 544.439209,1521.008057 69.118820,1521.007812 
	C44.515770,1521.007812 23.992929,1500.496216 23.992861,1475.894165 
	C23.991606,1030.072998 23.991625,584.251831 23.992720,138.430649 
	C23.992781,113.745682 44.765430,93.028221 69.540024,92.991966 
	C69.706688,92.991722 69.873344,92.991974 70.040009,92.991928 
	C221.031677,92.947159 372.023346,92.895325 523.015015,92.860596 
	C597.843384,92.843376 672.671692,92.857613 748.000122,92.857620 
M1180.007935,872.500000 
	C1180.007935,1077.255127 1180.007935,1282.010376 1180.007935,1486.992065 
	C1182.214111,1486.992065 1183.859741,1486.992065 1185.505493,1486.992065 
	C1287.334839,1486.992065 1389.164307,1486.992676 1490.993652,1486.991333 
	C1502.553345,1486.991211 1506.918457,1482.617188 1506.918457,1471.033813 
	C1506.919312,1028.384399 1506.919434,585.734924 1506.918335,143.085464 
	C1506.918335,131.607956 1502.449219,127.181076 1490.844116,127.180351 
	C1428.513184,127.176460 1366.182251,127.178421 1303.851318,127.178352 
	C1302.229858,127.178345 1300.608276,127.178345 1298.577148,127.178345 
	C1298.577148,129.676361 1298.577148,131.648438 1298.577148,133.620529 
	C1298.577148,207.784317 1298.305542,281.949707 1298.748779,356.110840 
	C1298.875488,377.329010 1281.936890,389.878632 1265.696533,389.358887 
	C1238.891724,388.501038 1212.039307,389.126770 1185.207031,389.127228 
	C1183.594727,389.127228 1181.982544,389.127228 1180.007935,389.127228 
	C1180.007935,550.250793 1180.007935,710.875427 1180.007935,872.500000 
M1154.958374,539.500000 
	C1154.958374,489.426178 1154.958374,439.352356 1154.958374,389.126312 
	C1126.040039,389.126312 1097.883057,389.149414 1069.726196,389.095459 
	C1066.417603,389.089111 1062.993896,389.128479 1059.821289,388.345459 
	C1044.932861,384.670807 1036.253174,372.693665 1036.249512,356.124420 
	C1036.233032,281.793518 1036.242310,207.462585 1036.242310,133.131668 
	C1036.242310,131.223618 1036.242310,129.315582 1036.242310,127.488190 
	C995.054993,127.488190 954.645996,127.488190 913.996704,127.488190 
	C913.996704,129.781754 913.996643,131.766373 913.996643,133.751007 
	C913.996643,274.079773 913.840942,414.408936 914.199097,554.736816 
	C914.242554,571.768677 900.272888,587.611633 881.888306,587.223328 
	C854.901245,586.653320 827.893188,587.076721 800.894104,587.076904 
	C799.138916,587.076904 797.383728,587.076965 795.462158,587.076965 
	C795.462158,887.347168 795.462158,1186.937866 795.462158,1486.696045 
	C915.316772,1486.696045 1035.022705,1486.696045 1154.958374,1486.696045 
	C1154.958374,1171.099976 1154.958374,855.799988 1154.958374,539.500000 
M266.286957,622.500183 
	C266.286957,457.550720 266.286957,292.601257 266.286957,127.410980 
	C264.703186,127.315010 263.574921,127.186989 262.446686,127.186821 
	C199.115845,127.177574 135.785019,127.164017 72.454185,127.195511 
	C62.974304,127.200226 58.087524,132.220490 58.087364,141.784027 
	C58.079983,585.266541 58.080227,1028.749023 58.085602,1472.231567 
	C58.085720,1482.156616 62.865040,1486.985596 72.702423,1486.986450 
	C175.365036,1486.995728 278.027649,1486.993164 380.690277,1486.982666 
	C382.117096,1486.982544 383.543915,1486.839600 384.614441,1486.782349 
	C384.614441,1271.577637 384.614441,1056.844849 384.614441,842.004517 
	C355.248108,842.004517 326.252625,842.017822 297.257233,841.979248 
	C294.946075,841.976196 292.566254,841.904968 290.335663,841.373230 
	C275.193787,837.763184 266.315002,825.852661 266.303680,808.992920 
	C266.262146,747.162048 266.287048,685.331116 266.286957,622.500183 
M770.212341,822.500122 
	C770.212341,744.095764 770.212341,665.691345 770.212341,587.077393 
	C741.155579,587.077393 712.824951,586.518860 684.530212,587.285217 
	C667.343811,587.750671 651.622681,573.451904 651.688171,554.388062 
	C652.170349,414.057587 651.948486,273.724670 651.948303,133.392517 
	C651.948303,131.449036 651.948303,129.505539 651.948303,127.435913 
	C610.656250,127.435913 569.910950,127.435913 528.758179,127.435913 
	C528.758179,129.823135 528.758179,131.956726 528.758179,134.090317 
	C528.758179,357.755096 528.758240,581.419861 528.757263,805.084656 
	C528.757263,807.251221 528.809204,809.420288 528.726562,811.583984 
	C528.042480,829.493164 515.080994,841.992737 497.172150,842.002136 
	C470.005707,842.016357 442.839264,842.006714 415.672821,842.007202 
	C413.897552,842.007263 412.122314,842.007141 410.250732,842.007141 
	C410.250732,1057.254272 410.250732,1271.984985 410.250732,1486.735474 
	C530.416199,1486.735474 650.344910,1486.735474 770.212341,1486.735474 
	C770.212341,1265.486084 770.212341,1044.493042 770.212341,822.500122 
z"/>
<path fill="#FFFFFF" opacity="1.000000" stroke="none" 
	d="
M1180.007935,872.000000 
	C1180.007935,710.875427 1180.007935,550.250793 1180.007935,389.127228 
	C1181.982544,389.127228 1183.594727,389.127228 1185.207031,389.127228 
	C1212.039307,389.126770 1238.891724,388.501038 1265.696533,389.358887 
	C1281.936890,389.878632 1298.875488,377.329010 1298.748779,356.110840 
	C1298.305542,281.949707 1298.577148,207.784317 1298.577148,133.620529 
	C1298.577148,131.648438 1298.577148,129.676361 1298.577148,127.178345 
	C1300.608276,127.178345 1302.229858,127.178345 1303.851318,127.178352 
	C1366.182251,127.178421 1428.513184,127.176460 1490.844116,127.180351 
	C1502.449219,127.181076 1506.918335,131.607956 1506.918335,143.085464 
	C1506.919434,585.734924 1506.919312,1028.384399 1506.918457,1471.033813 
	C1506.918457,1482.617188 1502.553345,1486.991211 1490.993652,1486.991333 
	C1389.164307,1486.992676 1287.334839,1486.992065 1185.505493,1486.992065 
	C1183.859741,1486.992065 1182.214111,1486.992065 1180.007935,1486.992065 
	C1180.007935,1282.010376 1180.007935,1077.255127 1180.007935,872.000000 
z"/>
<path fill="#FFFFFF" opacity="1.000000" stroke="none" 
	d="
M1154.958374,540.000000 
	C1154.958374,855.799988 1154.958374,1171.099976 1154.958374,1486.696045 
	C1035.022705,1486.696045 915.316772,1486.696045 795.462158,1486.696045 
	C795.462158,1186.937866 795.462158,887.347168 795.462158,587.076965 
	C797.383728,587.076965 799.138916,587.076904 800.894104,587.076904 
	C827.893188,587.076721 854.901245,586.653320 881.888306,587.223328 
	C900.272888,587.611633 914.242554,571.768677 914.199097,554.736816 
	C913.840942,414.408936 913.996643,274.079773 913.996643,133.751007 
	C913.996643,131.766373 913.996704,129.781754 913.996704,127.488190 
	C954.645996,127.488190 995.054993,127.488190 1036.242310,127.488190 
	C1036.242310,129.315582 1036.242310,131.223618 1036.242310,133.131668 
	C1036.242310,207.462585 1036.233032,281.793518 1036.249512,356.124420 
	C1036.253174,372.693665 1044.932861,384.670807 1059.821289,388.345459 
	C1062.993896,389.128479 1066.417603,389.089111 1069.726196,389.095459 
	C1097.883057,389.149414 1126.040039,389.126312 1154.958374,389.126312 
	C1154.958374,439.352356 1154.958374,489.426178 1154.958374,540.000000 
z"/>
<path fill="#FFFFFF" opacity="1.000000" stroke="none" 
	d="
M266.286957,623.000244 
	C266.287048,685.331116 266.262146,747.162048 266.303680,808.992920 
	C266.315002,825.852661 275.193787,837.763184 290.335663,841.373230 
	C292.566254,841.904968 294.946075,841.976196 297.257233,841.979248 
	C326.252625,842.017822 355.248108,842.004517 384.614441,842.004517 
	C384.614441,1056.844849 384.614441,1271.577637 384.614441,1486.782349 
	C383.543915,1486.839600 382.117096,1486.982544 380.690277,1486.982666 
	C278.027649,1486.993164 175.365036,1486.995728 72.702423,1486.986450 
	C62.865040,1486.985596 58.085720,1482.156616 58.085602,1472.231567 
	C58.080227,1028.749023 58.079983,585.266541 58.087364,141.784027 
	C58.087524,132.220490 62.974304,127.200226 72.454185,127.195511 
	C135.785019,127.164017 199.115845,127.177574 262.446686,127.186821 
	C263.574921,127.186989 264.703186,127.315010 266.286957,127.410980 
	C266.286957,292.601257 266.286957,457.550720 266.286957,623.000244 
z"/>
<path fill="#FFFFFF" opacity="1.000000" stroke="none" 
	d="
M770.212341,823.000122 
	C770.212341,1044.493042 770.212341,1265.486084 770.212341,1486.735474 
	C650.344910,1486.735474 530.416199,1486.735474 410.250732,1486.735474 
	C410.250732,1271.984985 410.250732,1057.254272 410.250732,842.007141 
	C412.122314,842.007141 413.897552,842.007263 415.672821,842.007202 
	C442.839264,842.006714 470.005707,842.016357 497.172150,842.002136 
	C515.080994,841.992737 528.042480,829.493164 528.726562,811.583984 
	C528.809204,809.420288 528.757263,807.251221 528.757263,805.084656 
	C528.758240,581.419861 528.758179,357.755096 528.758179,134.090317 
	C528.758179,131.956726 528.758179,129.823135 528.758179,127.435913 
	C569.910950,127.435913 610.656250,127.435913 651.948303,127.435913 
	C651.948303,129.505539 651.948303,131.449036 651.948303,133.392517 
	C651.948486,273.724670 652.170349,414.057587 651.688171,554.388062 
	C651.622681,573.451904 667.343811,587.750671 684.530212,587.285217 
	C712.824951,586.518860 741.155579,587.077393 770.212341,587.077393 
	C770.212341,665.691345 770.212341,744.095764 770.212341,823.000122 
z"/>
</svg>