<?xml version="1.0" encoding="UTF-8" standalone="no"?>
<svg
   role="img"
   viewBox="0 0 18.5 24"
   version="1.1"
   id="svg1"
   sodipodi:docname="datacamp.svg"
   inkscape:version="1.4.2 (1:1.4.2+202505120737+ebf0e940d0)"
   width="18.5"
   height="24"
   xmlns:inkscape="http://www.inkscape.org/namespaces/inkscape"
   xmlns:sodipodi="http://sodipodi.sourceforge.net/DTD/sodipodi-0.dtd"
   xmlns="http://www.w3.org/2000/svg"
   xmlns:svg="http://www.w3.org/2000/svg"
   xmlns:rdf="http://www.w3.org/1999/02/22-rdf-syntax-ns#"
   xmlns:cc="http://creativecommons.org/ns#"
   xmlns:dc="http://purl.org/dc/elements/1.1/">
  <defs
     id="defs1" />
  <sodipodi:namedview
     id="namedview1"
     pagecolor="#ffffff"
     bordercolor="#000000"
     borderopacity="0.25"
     inkscape:showpageshadow="2"
     inkscape:pageopacity="0.0"
     inkscape:pagecheckerboard="0"
     inkscape:deskcolor="#d1d1d1"
     inkscape:zoom="32.583333"
     inkscape:cx="11.984655"
     inkscape:cy="11.984655"
     inkscape:window-width="1920"
     inkscape:window-height="1011"
     inkscape:window-x="0"
     inkscape:window-y="0"
     inkscape:window-maximized="1"
     inkscape:current-layer="svg1" />
  <title
     id="title1">DataCamp</title>
  <path
     d="m 10.209427,18.151 v -5.239 l 8.263,-4.712 -2.009,-1.152 -6.254,3.567 V 5.36 c 0,-0.356 -0.192,-0.689 -0.4999999,-0.866 l -7.524,-4.317 a 1.434,1.434 0 0 0 -1.45499999,0.044 1.438,1.438 0 0 0 -0.676,1.224 V 16.222 A 1.44,1.44 0 0 0 2.1834271,17.49 l 6.032,-3.44 v 4.683 a 1,1 0 0 0 0.504,0.867 l 7.7299999,4.4 2.01,-1.152 z M 8.2164271,5.938 v 5.814 l -6.168,3.518 V 2.4 l 6.168,3.539 z"
     id="path1" />
  <metadata
     id="metadata1">
    <rdf:RDF>
      <cc:Work
         rdf:about="">
        <dc:title>DataCamp</dc:title>
      </cc:Work>
    </rdf:RDF>
  </metadata>
</svg>
